<?xml version="1.0" encoding="UTF-8" standalone="no"?>
<!-- Created with Inkscape (http://www.inkscape.org/) -->

<svg
   xmlns:dc="http://purl.org/dc/elements/1.1/"
   xmlns:cc="http://creativecommons.org/ns#"
   xmlns:rdf="http://www.w3.org/1999/02/22-rdf-syntax-ns#"
   xmlns:svg="http://www.w3.org/2000/svg"
   xmlns="http://www.w3.org/2000/svg"
   xmlns:sodipodi="http://sodipodi.sourceforge.net/DTD/sodipodi-0.dtd"
   xmlns:inkscape="http://www.inkscape.org/namespaces/inkscape"
   width="800"
   height="320"
   id="svg2"
   version="1.1"
   inkscape:version="0.48.2 r9819"
   sodipodi:docname="fig0-appendix.svg"
   inkscape:export-filename="./fig0-appendix.png"
   inkscape:export-xdpi="90"
   inkscape:export-ydpi="90">
  <defs
     id="defs4" />
  <sodipodi:namedview
     id="base"
     pagecolor="#ffffff"
     bordercolor="#666666"
     borderopacity="1.0"
     inkscape:pageopacity="0.0"
     inkscape:pageshadow="2"
     inkscape:zoom="1"
     inkscape:cx="429.44149"
     inkscape:cy="240.13813"
     inkscape:document-units="px"
     inkscape:current-layer="layer1"
     showgrid="false">
    <inkscape:grid
       type="xygrid"
       id="grid2985"
       empspacing="5"
       visible="true"
       enabled="true"
       snapvisiblegridlinesonly="true" />
  </sodipodi:namedview>
  <metadata
     id="metadata7">
    <rdf:RDF>
      <cc:Work
         rdf:about="">
        <dc:format>image/svg+xml</dc:format>
        <dc:type
           rdf:resource="http://purl.org/dc/dcmitype/StillImage" />
        <dc:title></dc:title>
      </cc:Work>
    </rdf:RDF>
  </metadata>
  <g
     inkscape:label="Layer 1"
     inkscape:groupmode="layer"
     id="layer1"
     transform="translate(0,-732.36218)">
    <rect
       style="color:#000000;fill:#a0a0a0;fill-opacity:1;fill-rule:nonzero;stroke:none;stroke-width:1.84615386;marker:none;visibility:visible;display:inline;overflow:visible;enable-background:accumulate"
       id="rect2987"
       width="390"
       height="320"
       x="-1.0658141e-14"
       y="732.36218" />
    <rect
       style="color:#000000;fill:#ffffff;fill-opacity:1;fill-rule:nonzero;stroke:none;stroke-width:1.84615386;marker:none;visibility:visible;display:inline;overflow:visible;enable-background:accumulate"
       id="rect3757"
       width="350"
       height="280"
       x="20"
       y="752.36218" />
    <rect
       style="color:#000000;fill:#e0e0e0;fill-opacity:1;fill-rule:nonzero;stroke:none;stroke-width:1.84615386;marker:none;visibility:visible;display:inline;overflow:visible;enable-background:accumulate"
       id="rect3767"
       width="190"
       height="100"
       x="100"
       y="852.36218" />
    <path
       sodipodi:nodetypes="cccccccccccccccccccccccccccccccccccc"
       inkscape:connector-curvature="0"
       id="path4751"
       d="m 100,923.64789 8.14286,8.14286 13.57143,2.71428 21.71428,-8.14285 10.85714,-13.57143 -2.71428,-29.85715 13.57143,-10.85714 27.14285,2.71429 21.71429,13.57143 13.57143,13.57142 13.57143,2.71429 5.42857,-8.14286 8.14286,-10.85714 8.14285,-2.71429 13.57143,5.42858 2.71429,13.57142 8.14285,5.42858 2.71429,0 0,13.57142 -13.57143,-10.85714 -2.71428,-16.28571 -10.85715,-5.42857 -5.42857,2.71428 -13.57143,19 -5.42857,2.71429 -16.28571,-5.42857 -10.85715,-10.85715 -21.71428,-13.57143 -16.28572,0 -13.57142,8.14286 5.42857,10.85714 -2.71429,13.57143 -16.28571,19 -24.42857,8.14286 -16.28572,-5.42857 L 100,931.79075"
       style="color:#000000;fill:#e8e8e8;fill-opacity:1;fill-rule:nonzero;stroke:none;stroke-width:4;marker:none;visibility:visible;display:inline;overflow:visible;enable-background:accumulate" />
    <path
       style="color:#000000;fill:#a0a0a0;fill-opacity:1;fill-rule:nonzero;stroke:none;stroke-width:1.84615386;marker:none;visibility:visible;display:inline;overflow:visible;enable-background:accumulate"
       d="m 135,873.23718 c -5.52284,0 -10,4.47716 -10,10 0,2.76142 1.12786,5.25286 2.9375,7.0625 l 7.0625,7.0625 7.0625,-7.0625 c 1.80964,-1.80964 2.9375,-4.30108 2.9375,-7.0625 0,-5.52284 -4.47716,-10 -10,-10 z"
       id="path3775"
       inkscape:connector-curvature="0" />
    <path
       inkscape:connector-curvature="0"
       id="path3797"
       d="m 215,903.23718 c -5.52284,0 -10,4.47716 -10,10 0,2.76142 1.12786,5.25286 2.9375,7.0625 l 7.0625,7.0625 7.0625,-7.0625 c 1.80964,-1.80964 2.9375,-4.30108 2.9375,-7.0625 0,-5.52284 -4.47716,-10 -10,-10 z"
       style="color:#000000;fill:#a0a0a0;fill-opacity:1;fill-rule:nonzero;stroke:none;stroke-width:1.84615386;marker:none;visibility:visible;display:inline;overflow:visible;enable-background:accumulate" />
    <path
       style="color:#000000;fill:#a0a0a0;fill-opacity:1;fill-rule:nonzero;stroke:none;stroke-width:1.84615386;marker:none;visibility:visible;display:inline;overflow:visible;enable-background:accumulate"
       d="m 245,858.23718 c -5.52284,0 -10,4.47716 -10,10 0,2.76142 1.12786,5.25286 2.9375,7.0625 l 7.0625,7.0625 7.0625,-7.0625 c 1.80964,-1.80964 2.9375,-4.30108 2.9375,-7.0625 0,-5.52284 -4.47716,-10 -10,-10 z"
       id="path3799"
       inkscape:connector-curvature="0" />
    <rect
       y="732.36218"
       x="410"
       height="320"
       width="390"
       id="rect4136"
       style="color:#000000;fill:#a0a0a0;fill-opacity:1;fill-rule:nonzero;stroke:none;stroke-width:1.84615386;marker:none;visibility:visible;display:inline;overflow:visible;enable-background:accumulate" />
    <rect
       y="752.36218"
       x="430"
       height="160"
       width="220"
       id="rect3759"
       style="color:#000000;fill:#ffffff;fill-opacity:1;fill-rule:nonzero;stroke:none;stroke-width:1.84615386;marker:none;visibility:visible;display:inline;overflow:visible;enable-background:accumulate" />
    <rect
       y="752.36218"
       x="430"
       height="280"
       width="350"
       id="rect3803"
       style="color:#000000;fill:#e0e0e0;fill-opacity:1;fill-rule:nonzero;stroke:none;stroke-width:1.84615386;marker:none;visibility:visible;display:inline;overflow:visible;enable-background:accumulate" />
    <g
       id="g3821"
       transform="translate(175,-115)">
      <path
         sodipodi:nodetypes="ccc"
         transform="translate(0,852.36218)"
         inkscape:connector-curvature="0"
         id="path3817"
         d="m 265,35 0,-10 10,0"
         style="color:#000000;fill:none;stroke:#ffffff;stroke-width:4;stroke-linecap:round;stroke-miterlimit:4;stroke-opacity:1;stroke-dasharray:none;marker:none;visibility:visible;display:inline;overflow:visible;enable-background:accumulate" />
      <path
         transform="translate(0,852.36218)"
         inkscape:connector-curvature="0"
         id="path3819"
         d="m 265,25 25,25"
         style="color:#000000;fill:none;stroke:#ffffff;stroke-width:4;stroke-linecap:round;stroke-linejoin:miter;stroke-miterlimit:4;stroke-opacity:1;stroke-dasharray:none;stroke-dashoffset:0;marker:none;visibility:visible;display:inline;overflow:visible;enable-background:accumulate" />
    </g>
    <g
       id="g4138"
       transform="translate(10,14.999999)">
      <path
         transform="matrix(1.3333335,0,0,1.3333335,56.666625,737.36217)"
         d="m 265,105 a 15,15 0 1 1 -30,0 15,15 0 1 1 30,0 z"
         sodipodi:ry="15"
         sodipodi:rx="15"
         sodipodi:cy="105"
         sodipodi:cx="250"
         id="path3885"
         style="color:#000000;fill:#ffffff;fill-opacity:1;stroke:none;stroke-width:2;marker:none;visibility:visible;display:inline;overflow:visible;enable-background:accumulate"
         sodipodi:type="arc" />
      <text
         sodipodi:linespacing="125%"
         id="text3887"
         y="883.91882"
         x="403.26562"
         style="font-size:15px;font-style:normal;font-variant:normal;font-weight:bold;font-stretch:normal;text-indent:0;text-align:end;text-decoration:none;line-height:125%;letter-spacing:normal;word-spacing:normal;text-transform:none;direction:ltr;block-progression:tb;writing-mode:lr-tb;text-anchor:end;baseline-shift:baseline;color:#000000;fill:#a0a0a0;fill-opacity:1;fill-rule:nonzero;stroke:none;stroke-width:1.84615386;marker:none;visibility:visible;display:inline;overflow:visible;enable-background:accumulate;font-family:Open Sans;-inkscape-font-specification:Open Sans Bold"
         xml:space="preserve"><tspan
           y="883.91882"
           x="403.26562"
           id="tspan3889"
           sodipodi:role="line"
           style="font-size:24px">vs</tspan></text>
    </g>
    <g
       transform="matrix(1,0,0,-1,175,1899.7244)"
       id="g4711">
      <path
         style="color:#000000;fill:none;stroke:#ffffff;stroke-width:4;stroke-linecap:round;stroke-miterlimit:4;stroke-opacity:1;stroke-dasharray:none;marker:none;visibility:visible;display:inline;overflow:visible;enable-background:accumulate"
         d="m 265,35 0,-10 10,0"
         id="path4713"
         inkscape:connector-curvature="0"
         transform="translate(0,852.36218)"
         sodipodi:nodetypes="ccc" />
      <path
         style="color:#000000;fill:none;stroke:#ffffff;stroke-width:4;stroke-linecap:round;stroke-linejoin:miter;stroke-miterlimit:4;stroke-opacity:1;stroke-dasharray:none;stroke-dashoffset:0;marker:none;visibility:visible;display:inline;overflow:visible;enable-background:accumulate"
         d="m 265,25 25,25"
         id="path4715"
         inkscape:connector-curvature="0"
         transform="translate(0,852.36218)" />
    </g>
    <g
       transform="matrix(-1,0,0,1,1035,-115)"
       id="g4717">
      <path
         style="color:#000000;fill:none;stroke:#ffffff;stroke-width:4;stroke-linecap:round;stroke-miterlimit:4;stroke-opacity:1;stroke-dasharray:none;marker:none;visibility:visible;display:inline;overflow:visible;enable-background:accumulate"
         d="m 265,35 0,-10 10,0"
         id="path4719"
         inkscape:connector-curvature="0"
         transform="translate(0,852.36218)"
         sodipodi:nodetypes="ccc" />
      <path
         style="color:#000000;fill:none;stroke:#ffffff;stroke-width:4;stroke-linecap:round;stroke-linejoin:miter;stroke-miterlimit:4;stroke-opacity:1;stroke-dasharray:none;stroke-dashoffset:0;marker:none;visibility:visible;display:inline;overflow:visible;enable-background:accumulate"
         d="m 265,25 25,25"
         id="path4721"
         inkscape:connector-curvature="0"
         transform="translate(0,852.36218)" />
    </g>
    <g
       id="g4723"
       transform="matrix(-1,0,0,-1,1035,1899.7244)">
      <path
         sodipodi:nodetypes="ccc"
         transform="translate(0,852.36218)"
         inkscape:connector-curvature="0"
         id="path4725"
         d="m 265,35 0,-10 10,0"
         style="color:#000000;fill:none;stroke:#ffffff;stroke-width:4;stroke-linecap:round;stroke-miterlimit:4;stroke-opacity:1;stroke-dasharray:none;marker:none;visibility:visible;display:inline;overflow:visible;enable-background:accumulate" />
      <path
         transform="translate(0,852.36218)"
         inkscape:connector-curvature="0"
         id="path4727"
         d="m 265,25 25,25"
         style="color:#000000;fill:none;stroke:#ffffff;stroke-width:4;stroke-linecap:round;stroke-linejoin:miter;stroke-miterlimit:4;stroke-opacity:1;stroke-dasharray:none;stroke-dashoffset:0;marker:none;visibility:visible;display:inline;overflow:visible;enable-background:accumulate" />
    </g>
    <path
       style="color:#000000;fill:#e8e8e8;fill-opacity:1;fill-rule:nonzero;stroke:none;stroke-width:4;marker:none;visibility:visible;display:inline;overflow:visible;enable-background:accumulate"
       d="m 430,927.36218 15,15 25,5 40,-15 20,-25 -5,-55 25,-20 50,5 40,25 25,25 25,5 10,-15 15,-20 15,-5 25,10 5,25 15,10 5,0 0,25 -25,-20 -5,-30 -20,-10 -10,5 -25,35 -10,5 -30,-10 -20,-20 -40,-25 -30,0 -25,15 10,20 -5,25 -30,35 -45,15 -30,-10 -10,-10"
       id="path4729"
       inkscape:connector-curvature="0"
       sodipodi:nodetypes="cccccccccccccccccccccccccccccccccccc" />
    <g
       id="g4695"
       transform="matrix(1.0714285,0,0,1,-37.857105,20)">
      <rect
         y="852.36218"
         x="530"
         height="4"
         width="140"
         id="rect3862"
         style="color:#000000;fill:#a0a0a0;fill-opacity:1;fill-rule:nonzero;stroke:none;stroke-width:1.84615386;marker:none;visibility:visible;display:inline;overflow:visible;enable-background:accumulate" />
      <rect
         style="color:#000000;fill:#a0a0a0;fill-opacity:1;fill-rule:nonzero;stroke:none;stroke-width:1.84615386;marker:none;visibility:visible;display:inline;overflow:visible;enable-background:accumulate"
         id="rect3864"
         width="140"
         height="4"
         x="530"
         y="872.36218" />
      <rect
         y="892.36218"
         x="530"
         height="4"
         width="140"
         id="rect3866"
         style="color:#000000;fill:#a0a0a0;fill-opacity:1;fill-rule:nonzero;stroke:none;stroke-width:1.84615386;marker:none;visibility:visible;display:inline;overflow:visible;enable-background:accumulate" />
      <rect
         style="color:#000000;fill:#a0a0a0;fill-opacity:1;fill-rule:nonzero;stroke:none;stroke-width:1.84615386;marker:none;visibility:visible;display:inline;overflow:visible;enable-background:accumulate"
         id="rect3868"
         width="140"
         height="4"
         x="530"
         y="912.36218" />
    </g>
    <g
       transform="matrix(1.0714285,0,0,1,-37.857105,99.999997)"
       id="g4701">
      <rect
         style="color:#000000;fill:#a0a0a0;fill-opacity:1;fill-rule:nonzero;stroke:none;stroke-width:1.84615386;marker:none;visibility:visible;display:inline;overflow:visible;enable-background:accumulate"
         id="rect4703"
         width="140"
         height="4"
         x="530"
         y="852.36218" />
      <rect
         y="872.36218"
         x="530"
         height="4"
         width="140"
         id="rect4705"
         style="color:#000000;fill:#a0a0a0;fill-opacity:1;fill-rule:nonzero;stroke:none;stroke-width:1.84615386;marker:none;visibility:visible;display:inline;overflow:visible;enable-background:accumulate" />
      <rect
         style="color:#000000;fill:#a0a0a0;fill-opacity:1;fill-rule:nonzero;stroke:none;stroke-width:1.84615386;marker:none;visibility:visible;display:inline;overflow:visible;enable-background:accumulate"
         id="rect4707"
         width="140"
         height="4"
         x="530"
         y="892.36218" />
      <rect
         y="912.36218"
         x="530"
         height="4"
         width="140"
         id="rect4709"
         style="color:#000000;fill:#a0a0a0;fill-opacity:1;fill-rule:nonzero;stroke:none;stroke-width:1.84615386;marker:none;visibility:visible;display:inline;overflow:visible;enable-background:accumulate" />
    </g>
    <g
       transform="matrix(1.0714285,0,0,1,-447.8571,-80)"
       id="g4731">
      <rect
         style="color:#000000;fill:#a0a0a0;fill-opacity:1;fill-rule:nonzero;stroke:none;stroke-width:1.84615386;marker:none;visibility:visible;display:inline;overflow:visible;enable-background:accumulate"
         id="rect4733"
         width="140"
         height="4"
         x="530"
         y="852.36218" />
      <rect
         y="872.36218"
         x="530"
         height="4"
         width="140"
         id="rect4735"
         style="color:#000000;fill:#a0a0a0;fill-opacity:1;fill-rule:nonzero;stroke:none;stroke-width:1.84615386;marker:none;visibility:visible;display:inline;overflow:visible;enable-background:accumulate" />
      <rect
         style="color:#000000;fill:#a0a0a0;fill-opacity:1;fill-rule:nonzero;stroke:none;stroke-width:1.84615386;marker:none;visibility:visible;display:inline;overflow:visible;enable-background:accumulate"
         id="rect4737"
         width="140"
         height="4"
         x="530"
         y="892.36218" />
      <rect
         y="912.36218"
         x="530"
         height="4"
         width="140"
         id="rect4739"
         style="color:#000000;fill:#a0a0a0;fill-opacity:1;fill-rule:nonzero;stroke:none;stroke-width:1.84615386;marker:none;visibility:visible;display:inline;overflow:visible;enable-background:accumulate" />
    </g>
    <g
       id="g4741"
       transform="matrix(1.0714285,0,0,1,-447.8571,115)">
      <rect
         y="852.36218"
         x="530"
         height="4"
         width="140"
         id="rect4743"
         style="color:#000000;fill:#a0a0a0;fill-opacity:1;fill-rule:nonzero;stroke:none;stroke-width:1.84615386;marker:none;visibility:visible;display:inline;overflow:visible;enable-background:accumulate" />
      <rect
         style="color:#000000;fill:#a0a0a0;fill-opacity:1;fill-rule:nonzero;stroke:none;stroke-width:1.84615386;marker:none;visibility:visible;display:inline;overflow:visible;enable-background:accumulate"
         id="rect4745"
         width="140"
         height="4"
         x="530"
         y="872.36218" />
      <rect
         y="892.36218"
         x="530"
         height="4"
         width="140"
         id="rect4747"
         style="color:#000000;fill:#a0a0a0;fill-opacity:1;fill-rule:nonzero;stroke:none;stroke-width:1.84615386;marker:none;visibility:visible;display:inline;overflow:visible;enable-background:accumulate" />
    </g>
  </g>
</svg>
